<mxfile host="app.diagrams.net" modified="2023-08-15T06:36:57.792Z" agent="Mozilla/5.0 (Macintosh; Intel Mac OS X 10_15_7) AppleWebKit/537.36 (KHTML, like Gecko) Chrome/114.0.0.0 Safari/537.36" version="21.6.8" etag="CjhgARoQpONR5iRdDc6Q" type="github">
  <diagram name="第 1 页" id="5zUAwopmTCY6Z19usX8Y">
    <mxGraphModel>
      <root>
        <mxCell id="0" />
        <mxCell id="1" parent="0" />
      </root>
    </mxGraphModel>
  </diagram>
</mxfile>
